<?xml version="1.0" encoding="utf-8"?>
<!-- Generator: Adobe Illustrator 16.0.4, SVG Export Plug-In . SVG Version: 6.00 Build 0)  -->
<!DOCTYPE svg PUBLIC "-//W3C//DTD SVG 1.1//EN" "http://www.w3.org/Graphics/SVG/1.1/DTD/svg11.dtd">
<svg version="1.1" id="Layer_1" xmlns="http://www.w3.org/2000/svg" xmlns:xlink="http://www.w3.org/1999/xlink" x="0px" y="0px"
	 width="45px" height="55px" viewBox="0 0 45 55" enable-background="new 0 0 45 55" xml:space="preserve">
<path fill="#231F20" d="M34.646,6.325c0,0,0.945,0.577-0.472,2.1c0,0-0.893,0.42-2.205,0.998c0,0,0.473,1.26,1.89,2.678
	c0,0,2.152,3.413,3.045,5.933c0,0,0.315-0.053,0.683,1.312l0.577,1.365c0,0,0.42,0,0.578,0.893c0,0,0.84,1.575,1.208,2.678
	c0,0,0.735,0.577,0.368,1.05c0,0,0.315,2.152-1.103,4.411c0,0-1.05,1.207-4.2,2.31c0,0-0.735,1.995-0.735,2.625
	c0,0,0.21,0.577-0.105,1.155c0,0,0.84,0.104,0.945,0.997l4.305,4.987c0,0,1.522,1.155,0.735,1.732c0,0-1.103,1.26-4.83,0.525
	c0,0-3.413-0.42-3.36-1.575c0,0,0.315-1.103,2.625-0.577c0,0-0.263-1.207-1.312-1.995c0,0-2.73-1.417-3.203-2.258
	c0,0,0.263,2.835,0,3.622c0,0,0.683,0.105,0,1.471c0,0,1.103,0.787,0.63,1.785c0,0,0.945,1.05,0.735,2.258
	c0,0,1.05,3.201,0.472,3.621c0,0-2.835,2.205-7.087,1.785c0,0-1.417-0.262-0.263-1.207c0,0,3.203-2.152,3.045-2.939
	c0,0-0.105-1.575,0-1.838c0,0-0.525-0.262-0.263-0.577c0,0-0.893-1.103-0.683-1.942c0,0-0.735-4.777-1.522-5.828
	c0,0-6.458-0.787-8.138-9.188c0,0-3.202-8.873,4.883-13.125c0,0,1.522-0.578,3.518-0.157l-0.368-1.995l-1.995-0.945
	c0,0-0.577,0.105-0.997-0.262c0,0-1.733-2.205-1.733-3.36L5.657,15.372c0,0-0.738,0.695-1-0.459c0,0-0.467-1.055,0.922-1.422
	l14-6.43l0.21-2.31l0.578-0.473c0,0,1.05-1.575,2.572-1.47c0,0,2.048-0.473,2.73,1.05L25.983,3.7l1.155,1.995l0.84,0.158
	C27.978,5.852,32.808,4.802,34.646,6.325"/>
</svg>
