<?xml version="1.0" encoding="utf-8"?>
<!-- Generator: Adobe Illustrator 16.0.4, SVG Export Plug-In . SVG Version: 6.00 Build 0)  -->
<!DOCTYPE svg PUBLIC "-//W3C//DTD SVG 1.1//EN" "http://www.w3.org/Graphics/SVG/1.1/DTD/svg11.dtd">
<svg version="1.1" id="Layer_1" xmlns="http://www.w3.org/2000/svg" xmlns:xlink="http://www.w3.org/1999/xlink" x="0px" y="0px"
	 width="45px" height="55px" viewBox="0 0 45 55" enable-background="new 0 0 45 55" xml:space="preserve">
<path fill="#231F20" d="M27.29,48.459c0,0-2.525-0.951-2.729-1.381c0,0,0.238-0.816,0.07-1.059l-0.43-0.49l-0.031-1.637l0.264-0.496
	c0,0,0.531-3.177-0.432-6.105l-3.363-2.254l0.184-0.681c0,0,0.354,0.023,0.404-0.282c0,0,0.484,0.109,0.496-0.305
	c0,0,0.146-0.114,0.146-0.361c0,0,0.283-0.089,0.174-0.281c0,0,0.014-0.691-0.283-0.865l3.457-5.01c0,0,0.41,0.305,0.705,0.047
	c0,0,0.281-0.537,0.529-0.551c0,0,0.107-0.239-0.164-0.319c0,0,0.291-0.22,0.223-0.397c0,0,0.148-0.163,0.098-0.432
	c0,0,0.133-0.084,0.109-0.259c0,0,0.375,0.094,0.486-0.014L42.858,2.833c0,0-0.607-1.087-1.711-1.16L25.528,23.915l-0.104,0.186
	c0,0-0.445,0.086-0.533,0.358c0,0-0.35,0.069-0.363,0.623l-2.076-0.067l-0.27-1.172l0.105-0.178c0,0-0.367-2.519-1.135-3.124
	l0.332-0.833c0,0,0.77-0.134,0.947-0.376c0,0-0.094-0.676-0.01-0.878c0,0,0.041-0.298-0.072-0.328c0,0,0.279-0.375,0.316-0.603
	c0,0,0.129-0.552,0.002-0.139c0.25-0.815,0.193-1.782-0.557-2.67c0,0-0.207-0.43-0.682-0.854c0,0-2.102-1.432-3.676-0.68
	c0,0-1.881,0.5-2.232,2.695c0,0-0.568,3.013-5.291,5.96c0,0-0.502,0.268-0.645,0.674c0,0,0.664-0.604,1.416-0.808
	c0,0-1.088,0.737-1.141,1.195c0,0,0.764-0.735,1.09-0.76c0,0-0.574,1.349-3.996,2.441c0,0,1.217-0.221,1.781-0.392
	c0,0-1.078,0.599-1.08,0.969c0,0,1.6-0.881,2.109-1.208c-0.199,0.336-0.633,1.423-0.627,2.207l-0.822,0.916
	c0,0-0.379,0.137-0.406,0.574L7.559,27.71c0,0-0.473,0.5-0.436,0.987c0,0-0.527,1.699-1.111,2.168c0,0-0.008,0.809,0.588,1.24
	c0,0-0.828,1.702,0.959,5.1c0,0,1.57,3.88,1.498,5.695c0,0-1.529,0.402-2.965,2.203l-1.139,1.865c0,0-1.348,0.119-1.678,0.93
	c0,0-0.807,2.072-0.945,2.779c0,0-0.895,2.367,1.213,2.645c0,0,1.375,0.16,1.451-1.338c0,0,0.1-1.863,0.639-2.338
	c0,0,0.516-0.473,0.428-0.895c0,0,1.141-1.52,4.725-2.994c0,0,2.164-0.921,2.076-2.752c0,0-0.361-6.123,0.123-6.808
	c0,0,2.793,1.108,3.924,1.46c0,0,2.609,1.788,3.695,2.137c0,0,0.092,2.824,0.875,4.262c0,0,0.441,1.738,0.316,2.932
	c0,0,0.004,0.648-0.346,1.041c0,0-0.361,0.576-0.176,1.281l0.162,0.334c0,0,5.793,0.428,7.115-0.688
	C28.551,48.957,28.956,48.43,27.29,48.459 M19.069,32.555c-0.688-0.068-2.42-0.783-2.42-0.783c-0.566-0.521-0.723-2.381-0.723-2.381
	l1.84-1.265c1.811-1.175,2.031-2.085,2.031-2.085c0.189,0.29,0.014,1.203,0.014,1.203c0.408-0.251,0.355-1.179,0.355-1.179
	c0.355,0.901,2.176,1.345,2.176,1.345c0.904-0.057,2.09-0.533,2.09-0.533l-3.455,5.133l-0.672,0.025L19.069,32.555z"/>
</svg>
